<?xml version="1.0" encoding="UTF-8"?>
<svg width="700pt" height="700pt" version="1.1" viewBox="0 0 700 700" xmlns="http://www.w3.org/2000/svg">
 <g>
  <path fill="#555555" d="m350 0c-154.63 0-280 125.37-280 280s125.37 280 280 280 280-125.37 280-280-125.37-280-280-280zm177.8 443.8c0 7.7344-6.2656 14-14 14h-327.6c-7.7344 0-14-6.2656-14-14v-327.6c0-7.7344 6.2656-14 14-14h239.4c0.62891 0 1.2266 0.28125 1.8555 0.38672 0.59375 0.070312 1.0859 0.17578 1.6445 0.31641 2.3789 0.62891 4.6211 1.6445 6.4062 3.3945l88.199 88.199c1.75 1.75 2.7656 3.9883 3.3945 6.3359 0.17578 0.59375 0.28125 1.1211 0.35156 1.75 0.070312 0.59375 0.35156 1.1914 0.35156 1.7852z"/>
  <path fill="#777777" d="m439.6 150.01v40.387h40.387z"/>
  <path fill="#777777" d="m245.77 174.37v2.8008l1.3984-1.3984c0.003906-0.77344-0.62891-1.4023-1.3984-1.4023z"/>
  <path fill="#777777" d="m411.6 204.4v-74.199h-211.4v299.6h299.6v-211.4h-74.199c-7.7383 0-14-6.2617-14-14zm-192.43-28.629c0-14.664 11.934-26.602 26.602-26.602 14.664 0 26.602 11.934 26.602 26.602 0 14.664-11.934 26.602-26.602 26.602-14.668 0-26.602-11.938-26.602-26.602zm115.95 162.89h-104.27v-28h104.23v28zm104.23-59.535h-208.5v-28h208.46v28z"/>
 </g>
</svg>
